<svg id="visual" viewBox="0 0 960 100" width="960" height="100" xmlns="http://www.w3.org/2000/svg" xmlns:xlink="http://www.w3.org/1999/xlink" version="1.1"><path d="M0 38L32 46.3C64 54.7 128 71.3 192 69.3C256 67.3 320 46.7 384 42.2C448 37.7 512 49.3 576 58.8C640 68.3 704 75.7 768 68.5C832 61.3 896 39.7 928 28.8L960 18L960 101L928 101C896 101 832 101 768 101C704 101 640 101 576 101C512 101 448 101 384 101C320 101 256 101 192 101C128 101 64 101 32 101L0 101Z" fill="#d1cdc8" stroke-linecap="round" stroke-linejoin="miter"></path></svg>