<svg id="visual" viewBox="0 0 960 100" width="960" height="100" xmlns="http://www.w3.org/2000/svg" xmlns:xlink="http://www.w3.org/1999/xlink" version="1.1"><path d="M0 27L14.5 27.5C29 28 58 29 87.2 30.5C116.3 32 145.7 34 174.8 29.7C204 25.3 233 14.7 262 11.3C291 8 320 12 349 12.3C378 12.7 407 9.3 436.2 8.3C465.3 7.3 494.7 8.7 523.8 13C553 17.3 582 24.7 611 28.5C640 32.3 669 32.7 698 31.2C727 29.7 756 26.3 785.2 28C814.3 29.7 843.7 36.3 872.8 36.8C902 37.3 931 31.7 945.5 28.8L960 26L960 101L945.5 101C931 101 902 101 872.8 101C843.7 101 814.3 101 785.2 101C756 101 727 101 698 101C669 101 640 101 611 101C582 101 553 101 523.8 101C494.7 101 465.3 101 436.2 101C407 101 378 101 349 101C320 101 291 101 262 101C233 101 204 101 174.8 101C145.7 101 116.3 101 87.2 101C58 101 29 101 14.5 101L0 101Z" fill="#0d0f10"></path><path d="M0 34L14.5 39.3C29 44.7 58 55.3 87.2 56C116.3 56.7 145.7 47.3 174.8 45.2C204 43 233 48 262 46.3C291 44.7 320 36.3 349 36.3C378 36.3 407 44.7 436.2 46.5C465.3 48.3 494.7 43.7 523.8 45.8C553 48 582 57 611 57.3C640 57.7 669 49.3 698 43.8C727 38.3 756 35.7 785.2 32.8C814.3 30 843.7 27 872.8 25.3C902 23.7 931 23.3 945.5 23.2L960 23L960 101L945.5 101C931 101 902 101 872.8 101C843.7 101 814.3 101 785.2 101C756 101 727 101 698 101C669 101 640 101 611 101C582 101 553 101 523.8 101C494.7 101 465.3 101 436.2 101C407 101 378 101 349 101C320 101 291 101 262 101C233 101 204 101 174.8 101C145.7 101 116.3 101 87.2 101C58 101 29 101 14.5 101L0 101Z" fill="#363939"></path><path d="M0 61L14.5 58.5C29 56 58 51 87.2 51.3C116.3 51.7 145.7 57.3 174.8 62.3C204 67.3 233 71.7 262 70.3C291 69 320 62 349 57.8C378 53.7 407 52.3 436.2 53.3C465.3 54.3 494.7 57.7 523.8 57.7C553 57.7 582 54.3 611 50.5C640 46.7 669 42.3 698 43C727 43.7 756 49.3 785.2 50.2C814.3 51 843.7 47 872.8 45.5C902 44 931 45 945.5 45.5L960 46L960 101L945.5 101C931 101 902 101 872.8 101C843.7 101 814.3 101 785.2 101C756 101 727 101 698 101C669 101 640 101 611 101C582 101 553 101 523.8 101C494.7 101 465.3 101 436.2 101C407 101 378 101 349 101C320 101 291 101 262 101C233 101 204 101 174.8 101C145.7 101 116.3 101 87.2 101C58 101 29 101 14.5 101L0 101Z" fill="#646765"></path><path d="M0 61L14.5 64.7C29 68.3 58 75.7 87.2 76.2C116.3 76.7 145.7 70.3 174.8 65.5C204 60.7 233 57.3 262 58.2C291 59 320 64 349 67.8C378 71.7 407 74.3 436.2 76C465.3 77.7 494.7 78.3 523.8 75.8C553 73.3 582 67.7 611 63.7C640 59.7 669 57.3 698 60.8C727 64.3 756 73.7 785.2 73.2C814.3 72.7 843.7 62.3 872.8 61.7C902 61 931 70 945.5 74.5L960 79L960 101L945.5 101C931 101 902 101 872.8 101C843.7 101 814.3 101 785.2 101C756 101 727 101 698 101C669 101 640 101 611 101C582 101 553 101 523.8 101C494.7 101 465.3 101 436.2 101C407 101 378 101 349 101C320 101 291 101 262 101C233 101 204 101 174.8 101C145.7 101 116.3 101 87.2 101C58 101 29 101 14.5 101L0 101Z" fill="#989995"></path><path d="M0 74L14.5 76.5C29 79 58 84 87.2 87.2C116.3 90.3 145.7 91.7 174.8 89C204 86.3 233 79.7 262 76.8C291 74 320 75 349 76.5C378 78 407 80 436.2 83.3C465.3 86.7 494.7 91.3 523.8 90.3C553 89.3 582 82.7 611 82.8C640 83 669 90 698 90.7C727 91.3 756 85.7 785.2 83C814.3 80.3 843.7 80.7 872.8 79.8C902 79 931 77 945.5 76L960 75L960 101L945.5 101C931 101 902 101 872.8 101C843.7 101 814.3 101 785.2 101C756 101 727 101 698 101C669 101 640 101 611 101C582 101 553 101 523.8 101C494.7 101 465.3 101 436.2 101C407 101 378 101 349 101C320 101 291 101 262 101C233 101 204 101 174.8 101C145.7 101 116.3 101 87.2 101C58 101 29 101 14.5 101L0 101Z" fill="#d1cdc8"></path></svg>